<mxfile host="app.diagrams.net" agent="Mozilla/5.0 (Windows NT 10.0; Win64; x64) AppleWebKit/537.36 (KHTML, like Gecko) Chrome/139.0.0.0 Safari/537.36" version="28.1.1">
  <diagram name="Página-1" id="AVxLQbETwxyj-wsCMq3z">
    <mxGraphModel dx="957" dy="668" grid="1" gridSize="10" guides="1" tooltips="1" connect="1" arrows="1" fold="1" page="1" pageScale="1" pageWidth="827" pageHeight="1169" math="0" shadow="0">
      <root>
        <mxCell id="0" />
        <mxCell id="1" parent="0" />
        <mxCell id="AeWxyO_AQz-rK39q7jmG-1" value="Mejoramiento del&lt;div&gt;&amp;nbsp;servicio de transitabilidad vial en las calles &lt;/div&gt;" style="ellipse;whiteSpace=wrap;html=1;" vertex="1" parent="1">
          <mxGeometry x="90" y="145" width="152" height="90" as="geometry" />
        </mxCell>
        <mxCell id="AeWxyO_AQz-rK39q7jmG-20" style="rounded=0;orthogonalLoop=1;jettySize=auto;html=1;entryX=0;entryY=1;entryDx=0;entryDy=0;dashed=1;" edge="1" parent="1" source="AeWxyO_AQz-rK39q7jmG-2" target="AeWxyO_AQz-rK39q7jmG-3">
          <mxGeometry relative="1" as="geometry" />
        </mxCell>
        <mxCell id="AeWxyO_AQz-rK39q7jmG-21" value="Aprendizaje " style="edgeLabel;html=1;align=center;verticalAlign=middle;resizable=0;points=[];" vertex="1" connectable="0" parent="AeWxyO_AQz-rK39q7jmG-20">
          <mxGeometry x="-0.1364" relative="1" as="geometry">
            <mxPoint as="offset" />
          </mxGeometry>
        </mxCell>
        <mxCell id="AeWxyO_AQz-rK39q7jmG-2" value="Resultado" style="ellipse;whiteSpace=wrap;html=1;" vertex="1" parent="1">
          <mxGeometry x="90" y="290" width="120" height="80" as="geometry" />
        </mxCell>
        <mxCell id="AeWxyO_AQz-rK39q7jmG-10" style="edgeStyle=orthogonalEdgeStyle;rounded=0;orthogonalLoop=1;jettySize=auto;html=1;" edge="1" parent="1" source="AeWxyO_AQz-rK39q7jmG-3" target="AeWxyO_AQz-rK39q7jmG-4">
          <mxGeometry relative="1" as="geometry" />
        </mxCell>
        <mxCell id="AeWxyO_AQz-rK39q7jmG-18" style="edgeStyle=orthogonalEdgeStyle;rounded=0;orthogonalLoop=1;jettySize=auto;html=1;exitX=0;exitY=0.5;exitDx=0;exitDy=0;entryX=1;entryY=0.5;entryDx=0;entryDy=0;" edge="1" parent="1" source="AeWxyO_AQz-rK39q7jmG-3" target="AeWxyO_AQz-rK39q7jmG-1">
          <mxGeometry relative="1" as="geometry" />
        </mxCell>
        <mxCell id="AeWxyO_AQz-rK39q7jmG-3" value="Principios" style="ellipse;whiteSpace=wrap;html=1;" vertex="1" parent="1">
          <mxGeometry x="310" y="150" width="120" height="80" as="geometry" />
        </mxCell>
        <mxCell id="AeWxyO_AQz-rK39q7jmG-12" style="edgeStyle=orthogonalEdgeStyle;rounded=0;orthogonalLoop=1;jettySize=auto;html=1;entryX=1;entryY=0.5;entryDx=0;entryDy=0;" edge="1" parent="1" source="AeWxyO_AQz-rK39q7jmG-4" target="AeWxyO_AQz-rK39q7jmG-5">
          <mxGeometry relative="1" as="geometry" />
        </mxCell>
        <mxCell id="AeWxyO_AQz-rK39q7jmG-4" value="Dominios" style="ellipse;whiteSpace=wrap;html=1;" vertex="1" parent="1">
          <mxGeometry x="414" y="280" width="120" height="80" as="geometry" />
        </mxCell>
        <mxCell id="AeWxyO_AQz-rK39q7jmG-13" style="edgeStyle=orthogonalEdgeStyle;rounded=0;orthogonalLoop=1;jettySize=auto;html=1;" edge="1" parent="1" source="AeWxyO_AQz-rK39q7jmG-5" target="AeWxyO_AQz-rK39q7jmG-6">
          <mxGeometry relative="1" as="geometry" />
        </mxCell>
        <mxCell id="AeWxyO_AQz-rK39q7jmG-19" value="Evaluación" style="edgeLabel;html=1;align=center;verticalAlign=middle;resizable=0;points=[];" vertex="1" connectable="0" parent="AeWxyO_AQz-rK39q7jmG-13">
          <mxGeometry x="-0.1333" y="-3" relative="1" as="geometry">
            <mxPoint as="offset" />
          </mxGeometry>
        </mxCell>
        <mxCell id="AeWxyO_AQz-rK39q7jmG-5" value="Práctica" style="ellipse;whiteSpace=wrap;html=1;" vertex="1" parent="1">
          <mxGeometry x="310" y="410" width="120" height="80" as="geometry" />
        </mxCell>
        <mxCell id="AeWxyO_AQz-rK39q7jmG-17" style="edgeStyle=orthogonalEdgeStyle;rounded=0;orthogonalLoop=1;jettySize=auto;html=1;entryX=0.5;entryY=1;entryDx=0;entryDy=0;" edge="1" parent="1" source="AeWxyO_AQz-rK39q7jmG-6" target="AeWxyO_AQz-rK39q7jmG-2">
          <mxGeometry relative="1" as="geometry" />
        </mxCell>
        <mxCell id="AeWxyO_AQz-rK39q7jmG-6" value="KPI" style="ellipse;whiteSpace=wrap;html=1;" vertex="1" parent="1">
          <mxGeometry x="90" y="410" width="120" height="80" as="geometry" />
        </mxCell>
        <mxCell id="AeWxyO_AQz-rK39q7jmG-22" value="Relación entre principios, dominios, prácticas y valor en proyectos” ayudaría a contextualizarlo" style="text;whiteSpace=wrap;html=1;align=center;" vertex="1" parent="1">
          <mxGeometry x="110" y="90" width="370" height="30" as="geometry" />
        </mxCell>
      </root>
    </mxGraphModel>
  </diagram>
</mxfile>
